<?xml version="1.0" encoding="UTF-8" standalone="no"?>
<svg
   viewBox="0 0 166 155.3"
   version="1.1"
   id="svg17"
   sodipodi:docname="solidjs-material-icon.svg"
   inkscape:version="1.3.2 (091e20e, 2023-11-25, custom)"
   xmlns:inkscape="http://www.inkscape.org/namespaces/inkscape"
   xmlns:sodipodi="http://sodipodi.sourceforge.net/DTD/sodipodi-0.dtd"
   xmlns="http://www.w3.org/2000/svg"
   xmlns:svg="http://www.w3.org/2000/svg">
  <sodipodi:namedview
     id="namedview17"
     pagecolor="#ffffff"
     bordercolor="#999999"
     borderopacity="1"
     inkscape:showpageshadow="2"
     inkscape:pageopacity="0"
     inkscape:pagecheckerboard="0"
     inkscape:deskcolor="#d1d1d1"
     inkscape:zoom="1.2508049"
     inkscape:cx="24.384299"
     inkscape:cy="212.26333"
     inkscape:window-width="958"
     inkscape:window-height="981"
     inkscape:window-x="952"
     inkscape:window-y="0"
     inkscape:window-maximized="0"
     inkscape:current-layer="svg17" />
  <defs
     id="defs12">
    <inkscape:perspective
       sodipodi:type="inkscape:persp3d"
       inkscape:vp_x="0 : 77.65 : 1"
       inkscape:vp_y="0 : 1000 : 0"
       inkscape:vp_z="166 : 77.65 : 1"
       inkscape:persp3d-origin="83 : 51.766667 : 1"
       id="perspective14" />
    <linearGradient
       id="a"
       gradientUnits="userSpaceOnUse"
       x1="27.5"
       y1="3"
       x2="152"
       y2="63.5"
       gradientTransform="matrix(0.91211828,0,0,0.91211828,7.3381232,6.8221057)">
      <stop
         offset="0.1"
         stop-color="#76b3e1"
         id="stop1"
         style="stop-color:#90caf9;stop-opacity:1;" />
      <stop
         offset="0.30000001"
         stop-color="#dcf2fd"
         id="stop2"
         style="stop-color:#e1f5fe;stop-opacity:1;" />
      <stop
         offset="1"
         stop-color="#76b3e1"
         id="stop3"
         style="stop-color:#64b5f6;stop-opacity:1;" />
    </linearGradient>
    <linearGradient
       id="b"
       gradientUnits="userSpaceOnUse"
       x1="95.8"
       y1="32.6"
       x2="74"
       y2="105.2"
       gradientTransform="matrix(0.91211828,0,0,0.91211828,7.3381232,6.8221057)">
      <stop
         offset="0"
         stop-color="#76b3e1"
         id="stop4"
         style="stop-color:#64b5f6;stop-opacity:1;" />
      <stop
         offset="0.5"
         stop-color="#4377bb"
         id="stop5"
         style="stop-color:#1976d2;stop-opacity:1;" />
      <stop
         offset="1"
         stop-color="#1f3b77"
         id="stop6"
         style="stop-color:#283593;stop-opacity:1;" />
    </linearGradient>
    <linearGradient
       id="c"
       gradientUnits="userSpaceOnUse"
       x1="18.4"
       y1="64.2"
       x2="144.3"
       y2="149.8"
       gradientTransform="matrix(0.91211828,0,0,0.91211828,7.3381232,6.8221057)">
      <stop
         offset="0"
         stop-color="#315aa9"
         id="stop7"
         style="stop-color:#01579b;stop-opacity:1;" />
      <stop
         offset="0.5"
         stop-color="#518ac8"
         id="stop8"
         style="stop-color:#1e88e5;stop-opacity:1;" />
      <stop
         offset="1"
         stop-color="#315aa9"
         id="stop9"
         style="stop-color:#01579b;stop-opacity:1;" />
    </linearGradient>
    <linearGradient
       id="d"
       gradientUnits="userSpaceOnUse"
       x1="75.2"
       y1="74.5"
       x2="24.4"
       y2="260.8"
       gradientTransform="matrix(0.91211828,0,0,0.91211828,7.3381232,6.8221057)">
      <stop
         offset="0"
         stop-color="#4377bb"
         id="stop10"
         style="stop-color:#1976d2;stop-opacity:1;" />
      <stop
         offset="0.5"
         stop-color="#1a336b"
         id="stop11"
         style="stop-color:#28359b;stop-opacity:1;" />
      <stop
         offset="1"
         stop-color="#1a336b"
         id="stop12"
         style="stop-color:#28359b;stop-opacity:1;" />
    </linearGradient>
  </defs>
  <path
     d="m 156.0134,38.746246 c 0,0 -48.34227,-35.5726135 -85.739115,-27.363549 l -2.736355,0.912118 c -5.47271,1.824237 -10.033301,4.560592 -12.769656,8.209065 l -1.824237,2.736355 -13.681774,23.715075 23.715076,4.560592 c 10.033301,6.384828 22.802957,9.121182 34.660494,6.384828 l 41.957437,8.209064 z"
     fill="#76b3e1"
     id="path12"
     style="fill:#64b5f6;fill-opacity:1;stroke-width:0.912118" />
  <path
     d="m 156.0134,38.746246 c 0,0 -48.34227,-35.5726135 -85.739115,-27.363549 l -2.736355,0.912118 c -5.47271,1.824237 -10.033301,4.560592 -12.769656,8.209065 l -1.824237,2.736355 -13.681774,23.715075 23.715076,4.560592 c 10.033301,6.384828 22.802957,9.121182 34.660494,6.384828 l 41.957437,8.209064 z"
     opacity="0.3"
     fill="url(#a)"
     id="path13"
     style="fill:#90caf9;stroke-width:0.912118;fill-opacity:1" />
  <path
     d="m 54.768274,38.746246 -3.648473,0.912118 C 35.61379,44.218955 31.053199,58.812848 39.262263,71.582504 48.383446,83.440042 67.53793,89.82487 83.043941,85.264278 L 139.59527,66.109794 c 0,0 -48.342265,-35.572613 -84.826996,-27.363548 z"
     fill="#518ac8"
     id="path14"
     style="fill:#1e88e5;fill-opacity:1;stroke-width:0.912118" />
  <path
     d="M 129.56197,79.791568 A 41.045323,41.045323 0 0 0 85.780296,66.109794 L 29.228962,84.35216 10.986596,116.2763 113.14384,133.60655 131.38621,100.77029 c 3.64847,-6.384829 2.73635,-13.681775 -1.82424,-20.978722 z"
     fill="url(#c)"
     id="path16"
     style="fill:#1976d2;stroke-width:0.912118;fill-opacity:1" />
  <path
     d="M 111.31961,111.71571 A 41.045323,41.045323 0 0 0 67.53793,98.033934 L 10.986596,116.2763 c 0,0 48.342269,36.48473 85.739119,27.36355 l 2.736355,-0.91212 c 15.50601,-4.56059 20.97872,-19.15448 11.85754,-31.01202 z"
     fill="url(#d)"
     id="path17"
     style="fill:#0d47a1;stroke-width:0.912118;fill-opacity:1" />
</svg>
